<svg id="circle-icon" xmlns="http://www.w3.org/2000/svg" width="80" height="80" viewBox="0 0 80 80">
  <path id="circle_1_" d="M75.6,2.6a40,40,0,1,0,40,40A39.96,39.96,0,0,0,75.6,2.6Zm0,74.525a34.413,34.413,0,1,1,34.413-34.413A34.357,34.357,0,0,1,75.6,77.125Z" transform="translate(-35.6 -2.6)" fill="#fff"/>
  <path id="font" d="M71.61,13.2H85.577V18H77.2v4.8H83.23v4.8H77.2V38.34L88.929,54.988,99.543,24.261l3.464,6.927L90.6,67.278,74.4,44.038,58.09,67.278,45.8,31.189l3.464-6.927L59.878,54.988,71.61,38.34Z" transform="translate(-34.403 -1.356)" fill="#fff"/>
</svg>
